<?xml version="1.0" encoding="utf-8"?>
<!-- Generator: Adobe Illustrator 16.0.0, SVG Export Plug-In . SVG Version: 6.00 Build 0)  -->
<!DOCTYPE svg PUBLIC "-//W3C//DTD SVG 1.1//EN" "http://www.w3.org/Graphics/SVG/1.1/DTD/svg11.dtd">
<svg version="1.1" xmlns="http://www.w3.org/2000/svg" xmlns:xlink="http://www.w3.org/1999/xlink" x="0px" y="0px"
	 width="24.125px" height="28.769px" viewBox="0 0 24.125 28.769" enable-background="new 0 0 24.125 28.769" xml:space="preserve">
<g id="Capa_2">
</g>
<g id="Capa_1">
	<g>
		<path fill="#58595B" d="M18.518,3.45c-0.649,0-1.25,0.149-1.753,0.423c-0.441-1.686-2.22-3.255-4.87-3.255
			c-2.649,0-4.428,1.569-4.87,3.255C6.521,3.6,5.921,3.45,5.271,3.45c-2.305,0-4.689,1.818-4.689,4.859
			c0,2.393,2.229,3.882,4.525,4.057v9.973h3.62v-4.072c0-0.251,0.202-0.454,0.452-0.454s0.453,0.203,0.453,0.454v4.072h1.81v-4.978
			c0-0.251,0.202-0.454,0.452-0.454s0.453,0.203,0.453,0.454v4.978h1.81v-4.072c0-0.251,0.203-0.454,0.453-0.454
			s0.452,0.203,0.452,0.454v4.072h3.62v-9.973c2.297-0.175,4.525-1.664,4.525-4.057C23.208,5.269,20.823,3.45,18.518,3.45z"/>
		<path fill="#58595B" d="M5.107,27.315c0,0.25,0.202,0.453,0.453,0.453h12.669c0.251,0,0.453-0.203,0.453-0.453v-4.071H5.107
			V27.315z"/>
	</g>
</g>
</svg>
