<?xml version="1.0" encoding="utf-8"?>
<!-- Generator: Adobe Illustrator 16.0.0, SVG Export Plug-In . SVG Version: 6.00 Build 0)  -->
<!DOCTYPE svg PUBLIC "-//W3C//DTD SVG 1.1//EN" "http://www.w3.org/Graphics/SVG/1.1/DTD/svg11.dtd">
<svg version="1.1" xmlns="http://www.w3.org/2000/svg" xmlns:xlink="http://www.w3.org/1999/xlink" x="0px" y="0px" width="25.25px"
	 height="30.008px" viewBox="0 0 25.25 30.008" enable-background="new 0 0 25.25 30.008" xml:space="preserve">
<g id="Capa_2">
</g>
<g id="Capa_1">
	<g>
		
			<path fill="none" stroke="#000000" stroke-width="1.5" stroke-linecap="round" stroke-linejoin="round" stroke-miterlimit="10" d="
			M12.323,1.589c-2.775,0-4.626,1.85-4.626,3.7C5.847,3.438,1.221,4.826,1.221,8.99c0,2.313,2.313,3.7,4.626,3.7v15.729H18.8V12.69
			c2.313,0,4.626-1.388,4.626-3.7c0-4.164-4.626-5.552-6.477-3.701C16.949,3.438,15.099,1.589,12.323,1.589z"/>
		
			<line fill="none" stroke="#000000" stroke-width="1.5" stroke-linecap="round" stroke-linejoin="round" stroke-miterlimit="10" x1="5.847" y1="23.793" x2="18.8" y2="23.793"/>
		
			<line fill="none" stroke="#000000" stroke-width="1.5" stroke-linecap="round" stroke-linejoin="round" stroke-miterlimit="10" x1="9.548" y1="19.167" x2="9.548" y2="23.793"/>
		
			<line fill="none" stroke="#000000" stroke-width="1.5" stroke-linecap="round" stroke-linejoin="round" stroke-miterlimit="10" x1="12.323" y1="18.242" x2="12.323" y2="23.793"/>
		
			<line fill="none" stroke="#000000" stroke-width="1.5" stroke-linecap="round" stroke-linejoin="round" stroke-miterlimit="10" x1="15.099" y1="19.167" x2="15.099" y2="23.793"/>
	</g>
</g>
</svg>
