<?xml version="1.0" encoding="utf-8"?>
<!-- Generator: Adobe Illustrator 16.0.0, SVG Export Plug-In . SVG Version: 6.00 Build 0)  -->
<!DOCTYPE svg PUBLIC "-//W3C//DTD SVG 1.1//EN" "http://www.w3.org/Graphics/SVG/1.1/DTD/svg11.dtd">
<svg version="1.1" xmlns="http://www.w3.org/2000/svg" xmlns:xlink="http://www.w3.org/1999/xlink" x="0px" y="0px"
	 width="41.129px" height="8.625px" viewBox="0 0 41.129 8.625" enable-background="new 0 0 41.129 8.625" xml:space="preserve">
<g id="Capa_2">
</g>
<g id="Capa_1">
	<g opacity="0.8">
		<path fill="#BE2E21" d="M11.469,4.226V3.993c0-0.01,0-0.021,0.001-0.032l-0.001-1.052c0-0.264-0.124-0.572-0.322-0.807
			c-0.047-0.056-0.098-0.104-0.15-0.147l-0.001-0.006L9.412,0.915l0.001,1.777l0.001,0.189l0,0c0.01,0.258,0.131,0.551,0.321,0.775
			c0.07,0.082,0.146,0.148,0.223,0.2l0.641,0.417l-0.06,0.039H8.82V3.143c0-0.367-0.216-0.804-0.508-1.051l0.002-0.009L8.209,2.015
			l-1.679-1.1v2.156l0,0v0.003c0,0.408,0.268,0.903,0.608,1.126l0.173,0.113H6.039V4.272V4.079c0-0.008,0-0.018,0-0.026V3.179
			c0-0.219-0.103-0.477-0.268-0.67C5.731,2.462,5.69,2.422,5.646,2.386L5.646,2.381L4.329,1.521l0.002,1.478v0.157h0.001
			C4.34,3.37,4.44,3.614,4.599,3.8c0.058,0.068,0.12,0.125,0.186,0.167l0.531,0.347H4.175L3.933,4.177
			C3.93,4.176,3.928,4.173,3.925,4.173L2.942,3.618C2.617,3.434,2.08,3.423,1.749,3.595L1.576,3.684V3.683L0,4.499l1.57,0.887
			l0.003,0.002C1.898,5.571,2.436,5.582,2.769,5.41l1.145-0.592C3.924,4.813,3.935,4.807,3.945,4.8l0.209-0.107h0.583L4.643,4.755
			C4.358,4.94,4.137,5.351,4.137,5.69v0.002l0,0v1.792l1.396-0.913l0.087-0.058L5.618,6.507C5.861,6.302,6.04,5.938,6.04,5.634
			L6.039,4.692H7.89l0.06,0.038L7.309,5.147C7.231,5.2,7.156,5.267,7.086,5.349c-0.19,0.225-0.312,0.518-0.321,0.775l0,0
			L6.764,6.313L6.763,8.091l1.583-1.034l0.001-0.006c0.053-0.044,0.104-0.093,0.15-0.147C8.695,6.669,8.819,6.36,8.819,6.097
			L8.82,5.045C8.819,5.034,8.819,5.022,8.819,5.013V4.78V4.692h1.142L9.788,4.806C9.447,5.028,9.18,5.523,9.18,5.932v0.003l0,0
			v2.156l1.679-1.1l0.105-0.068l-0.002-0.009c0.292-0.247,0.508-0.684,0.508-1.051V4.692h1.874l0.059,0.039l-0.64,0.417
			c-0.078,0.052-0.153,0.118-0.223,0.2c-0.191,0.225-0.312,0.518-0.321,0.775h-0.001v0.189l-0.002,1.777L13.8,7.057V7.051
			c0.054-0.043,0.104-0.092,0.151-0.147c0.198-0.234,0.321-0.543,0.321-0.807l0.001-1.051c0-0.012-0.001-0.022-0.001-0.033V4.78
			V4.692h2.856V4.313h-2.855l0.001-1.171c0-0.367-0.216-0.804-0.508-1.051l0.002-0.009l-0.105-0.068l-1.679-1.1l-0.001,2.156h0.001
			v0.003c0,0.408,0.267,0.903,0.607,1.126l0.174,0.113h-1.297V4.226z"/>
		<path fill="#BE2E21" d="M29.66,4.226V3.993c0-0.01,0-0.021-0.001-0.032l0.001-1.052c0-0.264,0.124-0.572,0.322-0.807
			c0.047-0.056,0.098-0.104,0.15-0.147l0.001-0.006l1.583-1.034l-0.001,1.777l-0.001,0.189l0,0c-0.01,0.258-0.131,0.551-0.321,0.775
			c-0.07,0.082-0.146,0.148-0.223,0.2L30.53,4.274l0.06,0.039h1.719V3.143c0-0.367,0.216-0.804,0.508-1.051l-0.002-0.009
			l0.105-0.068l1.679-1.1v2.156l0,0v0.003c0,0.408-0.268,0.903-0.608,1.126l-0.173,0.113h1.272V4.272V4.079c0-0.008,0-0.018,0-0.026
			V3.179c0-0.219,0.103-0.477,0.268-0.67c0.04-0.047,0.081-0.087,0.125-0.123l0.001-0.005L36.8,1.521l-0.002,1.478v0.157h-0.001
			C36.789,3.37,36.688,3.614,36.53,3.8c-0.058,0.068-0.12,0.125-0.186,0.167l-0.531,0.347h1.141l0.242-0.137
			c0.003-0.001,0.005-0.004,0.008-0.004l0.982-0.555c0.325-0.185,0.862-0.195,1.193-0.023l0.173,0.089V3.683l1.576,0.816
			l-1.57,0.887l-0.003,0.002C39.23,5.571,38.693,5.582,38.36,5.41l-1.145-0.592c-0.011-0.006-0.021-0.012-0.032-0.019l-0.209-0.107
			h-0.583l0.095,0.063c0.284,0.186,0.506,0.596,0.506,0.936v0.002l0,0v1.792l-1.396-0.913L35.51,6.514l0.001-0.007
			c-0.243-0.205-0.422-0.568-0.422-0.873l0.001-0.941h-1.851L33.18,4.73l0.641,0.417c0.077,0.053,0.152,0.119,0.223,0.201
			c0.19,0.225,0.312,0.518,0.321,0.775l0,0l0.001,0.189l0.001,1.777l-1.583-1.034l-0.001-0.006c-0.053-0.044-0.104-0.093-0.15-0.147
			C32.434,6.669,32.31,6.36,32.31,6.097l-0.001-1.052c0.001-0.011,0.001-0.022,0.001-0.032V4.78V4.692h-1.142l0.173,0.113
			c0.341,0.223,0.608,0.718,0.608,1.126v0.003l0,0v2.156l-1.679-1.1l-0.105-0.068l0.002-0.009c-0.292-0.247-0.508-0.684-0.508-1.051
			V4.692h-1.874l-0.059,0.039l0.64,0.417c0.078,0.052,0.153,0.118,0.223,0.2C28.78,5.573,28.9,5.866,28.91,6.124h0.001v0.189
			l0.002,1.777l-1.584-1.034V7.051c-0.054-0.043-0.104-0.092-0.151-0.147c-0.198-0.234-0.321-0.543-0.321-0.807l-0.001-1.051
			c0-0.012,0.001-0.022,0.001-0.033V4.78V4.692H24V4.313h2.855l-0.001-1.171c0-0.367,0.216-0.804,0.508-1.051L27.36,2.083
			l0.105-0.068l1.679-1.1l0.001,2.156h-0.001v0.003c0,0.408-0.267,0.903-0.607,1.126l-0.174,0.113h1.297V4.226z"/>
		<path fill="#BE2E21" d="M20.527,4.18c0.178,0,0.323,0.145,0.323,0.322c0,0.179-0.145,0.323-0.323,0.323
			c-0.178,0-0.323-0.145-0.323-0.323C20.204,4.324,20.349,4.18,20.527,4.18 M20.527,3.68c-0.455,0-0.823,0.367-0.823,0.822
			s0.368,0.823,0.823,0.823c0.455,0,0.823-0.368,0.823-0.823S20.982,3.68,20.527,3.68L20.527,3.68z"/>
	</g>
</g>
</svg>
